<?xml version="1.0" encoding="utf-8"?>
<!-- Generator: Adobe Illustrator 25.2.0, SVG Export Plug-In . SVG Version: 6.00 Build 0)  -->
<svg version="1.1" id="Layer_1" xmlns="http://www.w3.org/2000/svg" xmlns:xlink="http://www.w3.org/1999/xlink" x="0px" y="0px"
	 viewBox="0 0 360 360" style="enable-background:new 0 0 360 360;" xml:space="preserve">
<style type="text/css">
	.st0{fill:#AA6811;}
	.st1{fill:#F2F2F2;}
	.st2{fill:#2D313F;}
	.st3{fill:#FEAF06;}
	.st4{clip-path:url(#SVGID_2_);}
	.st5{fill:#FBD82B;}
	.st6{fill:#FFE278;}
	.st7{fill:#24262D;}
	.st8{fill:#DDDDDD;}
	.st9{opacity:0.27;enable-background:new    ;}
	.st10{clip-path:url(#SVGID_4_);}
	.st11{clip-path:url(#SVGID_6_);fill:#E8E8E8;}
	.st12{clip-path:url(#SVGID_8_);}
	.st13{clip-path:url(#SVGID_10_);fill:#E8E8E8;}
	.st14{clip-path:url(#SVGID_12_);}
	.st15{clip-path:url(#SVGID_14_);fill:#E8E8E8;}
	.st16{clip-path:url(#SVGID_16_);}
	.st17{clip-path:url(#SVGID_18_);fill:#E8E8E8;}
	.st18{clip-path:url(#SVGID_20_);}
	.st19{clip-path:url(#SVGID_22_);fill:#E8E8E8;}
	.st20{fill:#FEFCF9;}
	.st21{fill:#701D1D;}
	.st22{fill:#FC3539;}
</style>
<g>
	<path class="st0" d="M71.3,292.1c-2.1,0-3.8-1.6-4-3.7l-7-95c-0.2-2.2,1.5-4.1,3.7-4.3s4.1,1.5,4.3,3.7l7,95
		c0.2,2.2-1.5,4.1-3.7,4.3C71.5,292.1,71.4,292.1,71.3,292.1"/>
	<path class="st0" d="M49.5,182.9c1.1,14.5,8.2,25.8,16,25.3s13.2-12.8,12.1-27.3s-8.2-25.8-16-25.3
		C53.8,156.1,48.4,168.3,49.5,182.9"/>
	<g>
		<path d="M257.4,308.2c-1.4,0-2.8-0.8-3.5-2.1c-1-2-0.3-4.4,1.7-5.4c11.5-6,17.7-21,13.8-33.4c-1.1-3.6-2.8-6.3-4.9-8
			c-2.2-1.8-5.1-2.5-7.3-1.7c-2.1,0.7-4.4-0.4-5.1-2.5c-0.7-2.1,0.4-4.4,2.5-5.1c4.8-1.7,10.6-0.5,14.9,3.1
			c3.4,2.8,5.9,6.7,7.5,11.8c5,16.1-2.8,35-17.7,42.9C258.7,308.1,258.1,308.2,257.4,308.2z"/>
	</g>
	<g>
		<path d="M93.7,281.1c-0.5,0-1.1,0-1.7-0.1c-5.8-0.8-11.3-5.6-16.2-14.4c-11-19.5-15.6-37-15.8-37.8c-0.5-2.1,0.7-4.3,2.9-4.9
			c2.1-0.5,4.3,0.7,4.9,2.9c0,0.2,4.5,17.3,15,35.8c4.7,8.3,8.4,10,10.2,10.3c1.9,0.3,3.2-0.8,3.3-0.9c0.1-0.1,0.1-0.1,0.2-0.2
			l21-17.6c1.7-1.4,4.2-1.2,5.6,0.5c1.4,1.7,1.2,4.2-0.5,5.6l-21,17.5C100.9,278.8,98,281.1,93.7,281.1z"/>
	</g>
	<g>
		<path d="M71.9,250.9c-0.8,0-1.6-0.2-2.2-0.7l-9.4-6.3c-1.8-1.2-2.3-3.7-1.1-5.5s3.7-2.3,5.5-1.1l2.9,1.9l-0.2-6
			c-0.1-2.2,1.6-4.1,3.8-4.2c2.2-0.1,4.1,1.6,4.2,3.8l0.6,13.8c0.1,1.5-0.7,2.9-2,3.7C73.2,250.7,72.5,250.9,71.9,250.9z"/>
	</g>
	<path class="st1" d="M260.4,235.1h-150c-6.6,0-12-5.4-12-12v-9.7c0-6.6,5.4-12,12-12h150c6.6,0,12,5.4,12,12v9.7
		C272.4,229.7,267,235.1,260.4,235.1"/>
	<g>
		<path class="st1" d="M260.4,235.6h-150c-6.9,0-12.5-5.6-12.5-12.5v-9.7c0-6.9,5.6-12.5,12.5-12.5h150c6.9,0,12.5,5.6,12.5,12.5
			v9.7C272.9,230,267.3,235.6,260.4,235.6z M110.4,201.9c-6.3,0-11.5,5.2-11.5,11.5v9.7c0,6.3,5.2,11.5,11.5,11.5h150
			c6.3,0,11.5-5.2,11.5-11.5v-9.7c0-6.3-5.2-11.5-11.5-11.5H110.4z"/>
	</g>
	<path class="st2" d="M250,325.3c0,15-28.2,27.2-63,27.2s-63-12.2-63-27.2s28.2-27.2,63-27.2C221.8,298.1,250,310.3,250,325.3"/>
	<path class="st3" d="M186.3,120.1c-41.6,0-75.3-13.4-75.3-29.9s33.7-29.9,75.3-29.9s75.3,13.4,75.3,29.9S227.9,120.1,186.3,120.1"
		/>
	<g>
		<g>
			<defs>
				<rect id="SVGID_1_" x="95.8" y="46.3" width="181.4" height="109.9"/>
			</defs>
			<clipPath id="SVGID_2_">
				<use xlink:href="#SVGID_1_"  style="overflow:visible;"/>
			</clipPath>
			<g class="st4">
				
					<image style="overflow:visible;enable-background:new    ;" width="758" height="463" xlink:href="5AB9F0BBBEAF8837.png"  transform="matrix(0.2388 0 0 0.2388 96.0387 45.9954)">
				</image>
			</g>
		</g>
	</g>
	<path class="st5" d="M111.1,90.2c0,16.5,33.7,29.9,75.3,29.9s75.3-13.4,75.3-29.9c0,0,0.4,216.6,0,221.3
		c-1.5,16.4-33.7,29.9-75.3,29.9s-75.3-13.4-75.3-29.9C111.1,311.5,111.1,90.2,111.1,90.2z"/>
	<path class="st6" d="M123.9,309.4V142.6v-35.7c2.4,1.4,5,2.7,7.9,3.9v15v190v16.3c-2.9-1.2-5.5-2.5-7.9-3.9V309.4z"/>
	<path class="st6" d="M158.7,295.2v-170v-7.1c-2.7-0.4-5.4-0.9-7.9-1.5v6.4v171.8v43.1c2.6,0.5,5.2,1,7.9,1.5V295.2z"/>
	<path class="st6" d="M193.3,337.3v-210v-7.2c-2.3,0.1-4.6,0.1-7,0.1c-0.3,0-0.6,0-0.9,0v7.1v209.9v4.3c0.3,0,0.6,0,0.9,0
		c2.4,0,4.7,0,7-0.1V337.3z"/>
	<polygon class="st6" points="214.3,339.3 214.3,118 222.2,116.5 222.2,337.7 	"/>
	<path class="st6" d="M250,312.8V127.5v-21.2c-2.3,1.4-5,2.7-7.9,4.1v17.2v185.3v18.5c2.4-1.1,6.3-3.3,7.9-4.3V312.8z"/>
	<path class="st1" d="M107.8,256.4v55c0,16.5,35.2,29.9,78.6,29.9s77-13.4,78.6-29.9c0.1-1.5,0.2-25.9,0.2-57.9l-0.2-37.8
		c0,16.5-35.2,29.9-78.6,29.9s-78.6-13.4-78.6-29.9C107.8,215.7,107.8,256.4,107.8,256.4z"/>
	<g>
		<path class="st1" d="M186.4,341.7c-43.6,0-79.1-13.6-79.1-30.4v-95.7h1c0,16.2,35,29.4,78.1,29.4s78.1-13.2,78.1-29.4h1l0,0
			l0.2,37.8c0,37.1-0.1,56.6-0.2,58C263.8,328.4,229.1,341.7,186.4,341.7z M108.3,220.5v90.9c0,16.2,35,29.4,78.1,29.4
			c42.2,0,76.5-12.9,78.1-29.4c0.1-1.3,0.2-20.8,0.2-57.9l-0.2-33c-6,14.5-38.7,25.6-78.1,25.6C147.1,246,114.4,234.9,108.3,220.5z"
			/>
	</g>
	<path class="st7" d="M190.4,257.8l-22,33.5l12.5,8.2l2.1-3.2l6.5,31.1l21.6-33.6l-12.1-7.9l-2.1,3.2L190.4,257.8z M200.2,291.4
		l5.3,3.6l-14.2,21.8l-6.5-31.2l-5.3,8.1l-5.2-3.4l14.3-21.9l6.5,30.9L200.2,291.4z"/>
	<path class="st8" d="M190.8,39.3c-43.9-2.4-79.2-9.9-78.8-16.8c0.4-6.9,36.3-10.5,80.2-8.1s79.2,9.9,78.8,16.8
		S234.7,41.7,190.8,39.3"/>
</g>
<g>
	<path class="st1" d="M111.9,22.5c-0.4,6.9,34.9,14.4,78.8,16.8c43.9,2.4,79.8-1.2,80.2-8.1c0,0-4.5,90.2-5,92.1
		c-2,6.7-36.3,10.5-80.2,8.1s-79.2-9.9-78.8-16.8L111.9,22.5z"/>
	<g>
		<path class="st1" d="M211.7,132.6c-8.1,0-16.8-0.2-26-0.7c-39.3-2.2-79.8-9.2-79.3-17.3l5-92.1l1,0.1c-0.2,3,8.2,6.5,22.4,9.5
			c14.9,3.2,34.7,5.5,56,6.7c47.3,2.6,79.4-1.8,79.7-7.6l0,0l0,0l1,0.1c-0.5,9.2-4.5,90.3-5.1,92.2
			C264.7,129.2,242.6,132.6,211.7,132.6z M112.3,24.7l-4.9,89.9c-0.3,5.8,31.1,13.7,78.4,16.3c36.6,2,77.5-0.4,79.7-7.7
			c0.4-1.8,3.3-58.3,4.9-89.8c-6.8,6.4-43.9,8.4-79.6,6.5c-21.3-1.2-41.2-3.6-56.1-6.7C125.7,31.2,115.3,28.3,112.3,24.7z"/>
	</g>
</g>
<g>
	<g class="st9">
		<g>
			<g>
				<defs>
					<rect id="SVGID_3_" x="119.5" y="30" width="13" height="95"/>
				</defs>
				<clipPath id="SVGID_4_">
					<use xlink:href="#SVGID_3_"  style="overflow:visible;"/>
				</clipPath>
				<g class="st10">
					<g>
						<defs>
							<rect id="SVGID_5_" x="120.1" y="30.2" width="11.4" height="94.1"/>
						</defs>
						<clipPath id="SVGID_6_">
							<use xlink:href="#SVGID_5_"  style="overflow:visible;"/>
						</clipPath>
						<path class="st11" d="M120.5,114.5l3.8-69.4l0.8-14.8c1.9,0.7,4.1,1.3,6.4,2l-0.3,6.2l-4.3,79l-0.4,6.8
							c-2.4-0.6-4.5-1.3-6.4-2L120.5,114.5z"/>
					</g>
				</g>
			</g>
		</g>
	</g>
</g>
<g>
	<g class="st9">
		<g>
			<g>
				<defs>
					<rect id="SVGID_7_" x="147.5" y="35" width="13" height="94"/>
				</defs>
				<clipPath id="SVGID_8_">
					<use xlink:href="#SVGID_7_"  style="overflow:visible;"/>
				</clipPath>
				<g class="st12">
					<g>
						<defs>
							<rect id="SVGID_9_" x="148.3" y="35.8" width="11.3" height="93"/>
						</defs>
						<clipPath id="SVGID_10_">
							<use xlink:href="#SVGID_9_"  style="overflow:visible;"/>
						</clipPath>
						<path class="st13" d="M155.5,110.4l3.9-70.8l0.2-3c-2.2-0.3-4.2-0.6-6.3-1l-0.1,2.7l-3.9,71.5l-1,17.9c2,0.3,4.1,0.7,6.3,1
							L155.5,110.4z"/>
					</g>
				</g>
			</g>
		</g>
	</g>
</g>
<g>
	<g class="st9">
		<g>
			<g>
				<defs>
					<rect id="SVGID_11_" x="180.5" y="39" width="13" height="93"/>
				</defs>
				<clipPath id="SVGID_12_">
					<use xlink:href="#SVGID_11_"  style="overflow:visible;"/>
				</clipPath>
				<g class="st14">
					<g>
						<defs>
							<rect id="SVGID_13_" x="181.1" y="39.3" width="11.6" height="92.4"/>
						</defs>
						<clipPath id="SVGID_14_">
							<use xlink:href="#SVGID_13_"  style="overflow:visible;"/>
						</clipPath>
						<path class="st15" d="M187.8,130l4.8-87.3l0.2-3c-1.9-0.1-3.9-0.2-5.8-0.3c-0.3,0-0.5,0-0.8,0l-0.2,2.9l-4.8,87.3l-0.1,1.8
							c0.3,0,0.5,0,0.8,0c2,0.1,3.9,0.2,5.8,0.3L187.8,130z"/>
					</g>
				</g>
			</g>
		</g>
	</g>
</g>
<g>
	<g class="st9">
		<g>
			<g>
				<defs>
					<rect id="SVGID_15_" x="214.5" y="39" width="13" height="94"/>
				</defs>
				<clipPath id="SVGID_16_">
					<use xlink:href="#SVGID_15_"  style="overflow:visible;"/>
				</clipPath>
				<g class="st16">
					<g>
						<defs>
							<rect id="SVGID_17_" x="215.4" y="39.8" width="11.8" height="92.3"/>
						</defs>
						<clipPath id="SVGID_18_">
							<use xlink:href="#SVGID_17_"  style="overflow:visible;"/>
						</clipPath>
						<polygon class="st17" points="215.4,132.1 220.4,40.1 227.1,39.8 222.1,131.9 						"/>
					</g>
				</g>
			</g>
		</g>
	</g>
</g>
<g>
	<g class="st9">
		<g>
			<g>
				<defs>
					<rect id="SVGID_19_" x="244.5" y="37" width="13" height="94"/>
				</defs>
				<clipPath id="SVGID_20_">
					<use xlink:href="#SVGID_19_"  style="overflow:visible;"/>
				</clipPath>
				<g class="st18">
					<g>
						<defs>
							<rect id="SVGID_21_" x="244.9" y="37.2" width="12.1" height="93.3"/>
						</defs>
						<clipPath id="SVGID_22_">
							<use xlink:href="#SVGID_21_"  style="overflow:visible;"/>
						</clipPath>
						<path class="st19" d="M252.3,123.1l4.2-77.1l0.5-8.8c-2.1,0.5-4.4,0.9-7,1.3l-0.4,7.1l-4.2,77.1l-0.4,7.7
							c2.1-0.4,5.6-1.1,7-1.4L252.3,123.1z"/>
					</g>
				</g>
			</g>
		</g>
	</g>
	<path class="st20" d="M236.5,168.8c0,8.9-7.2,16-16,16c-8.9,0-16-7.2-16-16c0-8.9,7.2-16,16-16S236.5,160,236.5,168.8"/>
	<path class="st21" d="M228.8,168.8c0,4.6-3.7,8.3-8.3,8.3s-8.3-3.7-8.3-8.3s3.7-8.3,8.3-8.3S228.8,164.3,228.8,168.8"/>
	<path class="st20" d="M175.4,168.8c0,8.9-7.2,16-16,16c-8.9,0-16-7.2-16-16c0-8.9,7.2-16,16-16S175.4,160,175.4,168.8"/>
	<path class="st21" d="M167.7,168.8c0,4.6-3.7,8.3-8.3,8.3s-8.3-3.7-8.3-8.3s3.7-8.3,8.3-8.3S167.7,164.3,167.7,168.8"/>
	<path class="st21" d="M219,192.7c1.2,16.1-10.9,30.1-27,31.3s-30.1-10.9-31.3-27"/>
	<path class="st22" d="M192,223.9c7.2-0.5,13.7-3.6,18.4-8.4l-34.3,5C180.9,223.1,186.3,224.3,192,223.9"/>
	<path class="st22" d="M194.9,208.3c-8.5,0-15.6,4.9-18.7,12.2l34.3-5C206.7,211.1,201.1,208.3,194.9,208.3"/>
</g>
</svg>
